<?xml version="1.0" encoding="UTF-8" standalone="no"?>
<svg
   xmlns:dc="http://purl.org/dc/elements/1.1/"
   xmlns:cc="http://creativecommons.org/ns#"
   xmlns:rdf="http://www.w3.org/1999/02/22-rdf-syntax-ns#"
   xmlns:svg="http://www.w3.org/2000/svg"
   xmlns="http://www.w3.org/2000/svg"
   viewBox="0 0 238.66667 252"
   height="252"
   width="238.66667"
   xml:space="preserve"
   id="svg2"
   version="1.1"><metadata
     id="metadata8"><rdf:RDF><cc:Work
         rdf:about=""><dc:format>image/svg+xml</dc:format><dc:type
           rdf:resource="http://purl.org/dc/dcmitype/StillImage" /></cc:Work></rdf:RDF></metadata><defs
     id="defs6" /><g
     transform="matrix(1.3333333,0,0,-1.3333333,0,252)"
     id="g10"><g
       transform="scale(0.1)"
       id="g12"><path
         id="path14"
         style="fill:#232b4f;fill-opacity:1;fill-rule:evenodd;stroke:none"
         d="m 869.18,1889.8 0.269,-243.9 -52.027,-1.29 c -3.402,-0.12 -5.942,-2.93 -5.742,-6.33 l 3.281,-54.88 c 0.078,-2.42 2.269,-4.42 4.687,-4.22 l 45.313,3.2 1.41,-14.41 c -33.711,0 -51.172,-6.41 -52.351,-19.18 -13.36,-7.62 -33.36,-11.8 -59.961,-12.54 l -3.118,26.56 1.52,27.58 2.539,45.74 c 0.23,4.38 -1.84,6.6 -6.289,6.6 l -41.52,-0.19 c -3.281,0 -5.941,-2.66 -6.019,-5.94 l -1.25,-45.94 -59.371,-29.18 c -13.012,5 -25.903,5.75 -38.672,2.15 -3.359,-0.93 -5.117,-3.12 -5.399,-6.56 l -4.14,-58.75 c -0.82,-26.84 -17.262,-37.34 -49.41,-31.44 -1.168,0.27 -1.758,-0.24 -1.68,-1.49 0,-0.62 0,-1.41 0.078,-2.38 0.082,-3.95 -2.617,-5.63 -6.129,-3.75 -3.48,1.79 -6.371,6.4 -6.57,10.35 -0.43,9.73 -0.539,19.45 -0.27,29.18 4.879,18.28 5.661,37.07 2.34,56.41 -0.621,3.43 -2.648,5.15 -6.129,5.15 l -34.058,-0.19 c -3.133,-0.08 -5.672,-2.62 -5.672,-5.75 l -0.192,-57.11 c -12.699,-37.96 -22.578,-40.11 -11.839,-83.59 -21.008,3.56 -33.668,-14.57 -37.93,-54.41 l -94.41,-13.09 c -8.09,-1.13 -14.489,-7.26 -16.02,-15.16 l -6.679,-35.85 c -16.95,5.58 -34.68,5.46 -53.282,-0.4 -3.75,-1.17 -5.617,-3.71 -5.617,-7.61 v -44.34 c 0,-2.62 2.07,-4.8 4.68,-4.88 l 50.937,-1.88 0.942,-37.93 c -19.649,4.18 -38.2,3.95 -55.629,-0.78 -2.531,-0.74 -4.449,-3 -4.531,-5.62 l -2.731,-48.87 c -5.82,-12.54 -4.809,-25.66 3.121,-39.34 l -1.871,-52.14 c -8.668,-16.14 -8.008,-29.46 1.949,-39.93 l 1.211,-49.878 c 0.16,-3.633 1.961,-5.903 5.473,-6.762 17.187,-4.531 35.039,-3.789 53.558,2.23 6.481,-13.05 7.219,-30.121 2.258,-51.172 -4.019,17.301 -43.668,12.223 -57.148,11.832 -3.039,-0.109 -4.61,-1.679 -4.61,-4.679 v -42.27 c 0,-3.16 1.61,-4.73 4.731,-4.73 h 47.34 c 3.437,0 5.359,1.719 5.75,5.078 l 2.609,21.101 c 0.59,-58.71 11.141,-142.699 -2.808,-198.128 -1.051,-4.141 -0.082,-4.692 2.929,-1.602 l 2.348,2.34 c 2.34,2.351 5.82,3.211 9.019,2.351 l 36.723,-10.082 49.059,2.582 c 2.621,0.079 4.691,2.219 4.691,4.879 v 49.219 c 0,2.813 -1.449,4.223 -4.34,4.141 l -49.492,-1.02 0.66,15.43 45.629,7.23 c 3.871,0.59 6.793,3.789 7.07,7.66 l 3.403,42.149 c 0.269,3.59 -2.852,6.601 -6.41,6.133 l -54.493,-6.532 c -12.699,38.25 -15.82,83.75 -9.418,136.61 0.821,6.75 4.258,13.238 10.36,19.371 0.23,-3.359 1.48,-5.699 3.672,-6.949 2.578,-1.453 5.66,-0.711 9.289,2.258 l 40.508,-2.93 c 3.671,-0.231 5.781,1.488 6.293,5.199 2.738,18.711 16.558,51.561 39.136,42.261 L 460.66,910.781 c 0,-6.09 3.051,-9.101 9.141,-9.019 l 384.687,3.547 c 13.633,-21.207 17.973,-44.918 13.09,-71.168 -15.199,2.031 -31.129,0.308 -47.808,-5.161 -3.911,-1.25 -5.821,-3.941 -5.75,-8 l 0.55,-44.73 c 0.121,-3.828 3.52,-6.762 7.27,-6.289 l 46.211,6.289 0.39,-24.371 L 820.16,750 c -3.051,-0.199 -5.39,-2.539 -5.469,-5.551 L 813.16,693.32 c -0.039,-3.011 1.41,-4.769 4.34,-5.23 17.07,-2.86 34.379,-1.879 51.879,2.89 l 0.269,-278.789 C 640.59,411.91 412.5,411.84 185.352,411.91 37.9297,411.91 0,509.691 0,640.16 c 0,345.891 0,691.79 0,1037.77 -0.078125,90.74 10.8203,186.91 113.32,208.95 10.039,2.18 51.09,3.24 123.129,3.12 210.27,-0.39 421.211,-0.47 632.731,-0.2 z" /><path
         id="path16"
         style="fill:#1e9c4a;fill-opacity:1;fill-rule:evenodd;stroke:none"
         d="m 869.18,1889.8 c 86.84,0.08 174.37,-0.07 262.62,-0.39 88.94,-0.27 153.24,-64.18 165.47,-148.71 3.86,-26.72 -2.43,-60.23 1.71,-91.13 v -70.59 l -1.6,-328.78 -0.58,-71.06 0.19,-315.16 0.2,-72.73 c -1.25,-64.73 -0.28,-130.738 2.93,-198.16 4.68,-101.18 -53.95,-182.891 -161.17,-183.09 -90.86,-0.121 -180.63,0.621 -269.302,2.191 l -0.269,278.789 -0.938,60.899 -0.39,24.371 -0.473,57.891 c 4.883,26.25 0.543,49.961 -13.09,71.168 l 94.141,2.543 c 10.59,0.308 15.902,5.777 15.902,16.367 L 965,1414.18 c 0,3.44 -1.719,5.16 -5.16,5.08 l -487.031,-5.55 c -10.739,43.48 -0.86,45.63 11.839,83.59 l 43.711,1.49 c -0.269,-9.73 -0.16,-19.45 0.27,-29.18 0.199,-3.95 3.09,-8.56 6.57,-10.35 3.512,-1.88 6.211,-0.2 6.129,3.75 -0.078,0.97 -0.078,1.76 -0.078,2.38 -0.078,1.25 0.512,1.76 1.68,1.49 32.148,-5.9 48.59,4.6 49.41,31.44 14.769,-3.83 28.398,-3.55 40.941,0.86 3.481,1.17 5.239,3.59 5.391,7.23 l 1.879,55.07 59.371,29.18 c 18.168,-3.75 35.668,-3.86 52.539,-0.27 l -1.52,-27.58 -40.941,-1.72 c -3.75,-0.15 -5.781,-2.14 -6.02,-5.89 l -3.468,-50.67 c -0.282,-4.69 3.668,-8.55 8.359,-8.2 l 37.649,3.2 c 3.281,0.31 5.039,2.11 5.281,5.39 l 2.258,31.33 c 26.601,0.74 46.601,4.92 59.961,12.54 l 0.671,-43.4 c 0.039,-4.26 2.188,-6.41 6.399,-6.41 l 39.07,0.2 c 3.199,0 5.738,2.62 5.82,5.82 l 0.391,62.97 -1.41,14.41 4.488,63.52 z" /><path
         id="path18"
         style="fill:#ffffff;fill-opacity:1;fill-rule:evenodd;stroke:none"
         d="m 139.379,1678.67 c -40.2774,0.39 -72.5392,36.13 -72.1485,79.88 0.3476,43.79 33.3205,79.03 73.5075,78.64 40.282,-0.39 72.543,-36.14 72.192,-79.89 -0.391,-43.78 -33.321,-79.02 -73.551,-78.63 z" /><path
         id="path20"
         style="fill:#1c3a45;fill-opacity:1;fill-rule:evenodd;stroke:none"
         d="m 1298.98,1649.57 c 150.2,0.27 298.44,0.23 444.65,-0.08 55.43,-0.19 52.35,-70.39 13.64,-70.39 -152.78,0 -305.55,-0.04 -458.29,-0.12 z" /><path
         id="path22"
         style="fill:#f5d991;fill-opacity:1;fill-rule:evenodd;stroke:none"
         d="m 869.449,1645.9 -4.488,-63.52 -45.313,-3.2 c -2.418,-0.2 -4.609,1.8 -4.687,4.22 l -3.281,54.88 c -0.2,3.4 2.34,6.21 5.742,6.33 z" /><path
         id="path24"
         style="fill:#f5d991;fill-opacity:1;fill-rule:evenodd;stroke:none"
         d="m 309.41,1643.83 c 1.141,0 2.07,-0.94 2.07,-2.07 l 0.282,-41.41 c 0.078,-6.09 -3.793,-11.09 -8.481,-11.21 l -37.461,-0.16 c -4.73,-0.11 -8.55,4.89 -8.672,11.02 l -0.269,41.41 c 0,1.13 0.93,2.07 2.07,2.07 z" /><path
         id="path26"
         style="fill:#f5d991;fill-opacity:1;fill-rule:evenodd;stroke:none"
         d="m 419.449,1588.79 c 0.082,-2.93 -2.179,-5.47 -5.187,-5.55 l -43.051,-1.48 c -2.973,-0.12 -5.43,2.22 -5.59,5.15 l -1.75,50.43 c -0.082,2.93 2.18,5.47 5.188,5.55 l 43.089,1.49 c 2.973,0.11 5.391,-2.23 5.551,-5.16 z" /><path
         id="path28"
         style="fill:#f5d991;fill-opacity:1;fill-rule:evenodd;stroke:none"
         d="m 534.41,1589.45 c -0.031,-3.4 -2.89,-6.13 -6.32,-6.09 l -40.121,0.86 c -3.399,0.04 -6.129,2.85 -6.059,6.33 l 1.02,48.75 c 0.039,3.43 2.851,6.13 6.332,6.09 l 40.078,-0.86 c 3.43,-0.04 6.172,-2.85 6.09,-6.33 z" /><path
         id="path30"
         style="fill:#f5d991;fill-opacity:1;fill-rule:evenodd;stroke:none"
         d="m 641.02,1589.92 c 0,-3.87 -3.211,-7.07 -7.071,-6.99 l -34.109,0.23 c -3.899,0.08 -7.031,3.17 -6.988,7.11 l 0.308,47.62 c 0.039,3.87 3.25,7.07 7.11,7.03 l 34.109,-0.27 c 3.902,-0.04 7.031,-3.17 6.992,-7.11 z" /><path
         id="path32"
         style="fill:#f5d991;fill-opacity:1;fill-rule:evenodd;stroke:none"
         d="m 935.621,1644.96 h 51.801 c 1.68,0 3.008,-1.41 2.887,-3.08 l -2.887,-51.68 c -0.121,-1.61 -1.442,-2.82 -3.043,-2.82 l -51.57,0.55 c -1.598,0 -2.93,1.41 -2.809,3.01 l 2.73,51.29 c 0.079,1.52 1.411,2.73 2.891,2.73 z" /><path
         id="path34"
         style="fill:#f5d991;fill-opacity:1;fill-rule:evenodd;stroke:none"
         d="m 1099.02,1590.66 c 0,-1.32 -1.01,-2.46 -2.42,-2.46 l -51.01,-0.54 c -1.33,0 -2.47,1.13 -2.47,2.42 l -0.54,52.15 c 0,1.32 1.01,2.46 2.42,2.46 l 51.02,0.54 c 1.32,0.04 2.46,-1.09 2.46,-2.42 z" /><path
         id="path36"
         style="fill:#f5d991;fill-opacity:1;fill-rule:evenodd;stroke:none"
         d="m 752.461,1590.39 c -16.871,-3.59 -34.371,-3.48 -52.539,0.27 l 1.25,45.94 c 0.078,3.28 2.738,5.94 6.019,5.94 l 41.52,0.19 c 4.449,0 6.519,-2.22 6.289,-6.6 z" /><path
         id="path38"
         style="fill:#f5d991;fill-opacity:1;fill-rule:evenodd;stroke:none"
         d="M 866.371,1567.97 865.98,1505 c -0.082,-3.2 -2.621,-5.82 -5.82,-5.82 l -39.07,-0.2 c -4.211,0 -6.36,2.15 -6.399,6.41 l -0.671,43.4 c 1.179,12.77 18.64,19.18 52.351,19.18 z" /><path
         id="path40"
         style="fill:#f5d991;fill-opacity:1;fill-rule:evenodd;stroke:none"
         d="m 313.09,1513.32 c 0.148,-4.65 -3.52,-8.59 -8.211,-8.71 l -39.141,-1.25 c -4.718,-0.16 -8.59,3.52 -8.75,8.2 l -1.328,43.09 c -0.191,4.69 3.481,8.63 8.211,8.75 l 39.098,1.21 c 4.73,0.16 8.59,-3.52 8.75,-8.2 z" /><path
         id="path42"
         style="fill:#f5d991;fill-opacity:1;fill-rule:evenodd;stroke:none"
         d="m 640.551,1561.48 -1.879,-55.07 c -0.152,-3.64 -1.91,-6.06 -5.391,-7.23 -12.543,-4.41 -26.172,-4.69 -40.941,-0.86 l 4.14,58.75 c 0.282,3.44 2.04,5.63 5.399,6.56 12.769,3.6 25.66,2.85 38.672,-2.15 z" /><path
         id="path44"
         style="fill:#f5d991;fill-opacity:1;fill-rule:evenodd;stroke:none"
         d="m 372.379,1475.82 c -2.457,0 -4.449,2.07 -4.449,4.41 l 0.191,72.04 c 0,5.62 5.078,10.15 11.289,10.15 h 29.18 c 6.211,0 11.332,-4.61 11.332,-10.15 l -0.192,-72.04 c 0,-2.42 -2,-4.41 -4.421,-4.41 z" /><path
         id="path46"
         style="fill:#f5d991;fill-opacity:1;fill-rule:evenodd;stroke:none"
         d="m 750.941,1562.81 3.118,-26.56 -2.258,-31.33 c -0.242,-3.28 -2,-5.08 -5.281,-5.39 l -37.649,-3.2 c -4.691,-0.35 -8.641,3.51 -8.359,8.2 l 3.468,50.67 c 0.239,3.75 2.27,5.74 6.02,5.89 z" /><path
         id="path48"
         style="fill:#f5d991;fill-opacity:1;fill-rule:evenodd;stroke:none"
         d="m 528.359,1498.79 -43.711,-1.49 0.192,57.11 c 0,3.13 2.539,5.67 5.672,5.75 l 34.058,0.19 c 3.481,0 5.508,-1.72 6.129,-5.15 3.321,-19.34 2.539,-38.13 -2.34,-56.41 z" /><path
         id="path50"
         style="fill:#f5d991;fill-opacity:1;fill-rule:evenodd;stroke:none"
         d="m 981.988,1500.27 c -0.039,-2.5 -2.109,-4.49 -4.566,-4.49 l -43.672,0.55 c -2.461,0 -4.531,2.07 -4.449,4.57 l 0.621,52.73 c 0.078,2.5 2.148,4.46 4.566,4.46 l 43.672,-0.55 c 2.461,0 4.539,-2.07 4.5,-4.57 z" /><path
         id="path52"
         style="fill:#f5d991;fill-opacity:1;fill-rule:evenodd;stroke:none"
         d="m 1096.37,1497.7 c -0.04,-1.37 -1.17,-2.47 -2.62,-2.43 l -50.23,1.84 c -1.41,0.08 -2.47,1.21 -2.47,2.62 l 1.92,51.91 c 0.08,1.37 1.21,2.5 2.62,2.46 l 50.23,-1.83 c 1.45,-0.12 2.46,-1.25 2.46,-2.66 z" /><path
         id="path54"
         style="fill:#f5d991;fill-opacity:1;fill-rule:evenodd;stroke:none"
         d="m 318.121,1420.04 c 0.039,-3.24 -2.5,-5.86 -5.781,-5.9 l -48.36,-0.66 c -3.242,-0.04 -5.89,2.5 -5.929,5.74 l -0.672,47.62 c -0.039,3.24 2.5,5.89 5.781,5.93 l 48.36,0.67 c 3.25,0.04 5.859,-2.5 5.941,-5.74 z" /><path
         id="path56"
         style="fill:#f5d991;fill-opacity:1;fill-rule:evenodd;stroke:none"
         d="m 1094.34,1397.89 h -51.02 c -1.8,0 -3.2,1.41 -3.2,3.2 v 51.41 c 0,1.88 1.68,3.36 3.67,3.09 l 51.01,-7.23 c 1.61,-0.2 2.74,-1.6 2.74,-3.13 v -44.14 c 0,-1.79 -1.41,-3.2 -3.2,-3.2 z" /><path
         id="path58"
         style="fill:#1c3a45;fill-opacity:1;fill-rule:evenodd;stroke:none"
         d="m 854.488,905.309 -384.687,-3.547 c -6.09,-0.082 -9.141,2.929 -9.141,9.019 l 0.078,104.019 c 3.172,13.05 2.352,28.17 -2.418,45.36 l 3.668,13.63 c 0.742,2.85 0.551,5.94 -0.777,8.67 -5.742,12.42 -1.52,21.8 12.738,28.05 l 0.742,215.39 c 5.188,9.76 -8.05,20.9 -39.812,33.4 4.262,39.84 16.922,57.97 37.93,54.41 l 487.031,5.55 c 3.441,0.08 5.16,-1.64 5.16,-5.08 l -0.469,-489.961 c 0,-10.59 -5.312,-16.059 -15.902,-16.367 z" /><path
         id="path60"
         style="fill:#f5d991;fill-opacity:1;fill-rule:evenodd;stroke:none"
         d="m 317.73,1327.27 c -0.152,-2.82 -2.5,-5.04 -5.269,-4.93 l -49.492,1.84 c -2.809,0.12 -4.957,2.46 -4.879,5.27 l 1.558,42.89 c 0.153,2.78 2.5,5.04 5.274,4.89 l 49.488,-1.84 c 2.82,-0.08 4.969,-2.46 4.891,-5.23 z" /><path
         id="path62"
         style="fill:#0c683f;fill-opacity:1;fill-rule:evenodd;stroke:none"
         d="m 434.879,1359.3 c 31.762,-12.5 45,-23.64 39.812,-33.4 l -119.73,-3.87 c -2.66,-0.08 -3.941,-1.41 -3.941,-4.06 l -1.141,-198.52 c -0.078,-3.63 1.723,-5.5 5.351,-5.62 l 118.719,-3.32 c -14.258,-6.25 -18.48,-15.63 -12.738,-28.05 1.328,-2.73 1.519,-5.82 0.777,-8.67 l -3.668,-13.63 c -31.05,0.74 -96.871,-3.28 -120.39,19.02 -17.34,16.44 -25.309,37.66 -23.91,63.63 l 1.41,55.35 -0.942,37.93 3.282,59.11 6.679,35.85 c 1.531,7.9 7.93,14.03 16.02,15.16 z" /><path
         id="path64"
         style="fill:#f5d991;fill-opacity:1;fill-rule:evenodd;stroke:none"
         d="m 1040.2,1349.49 c 0,1.25 1.05,2.19 2.18,2.19 h 1.02 c 29.37,-0.2 53.08,-3.2 53.08,-6.68 l -0.35,-53.67 c 0,-3.48 -23.83,-6.1 -53.08,-5.94 h -1.06 c -1.21,0 -2.15,0.94 -2.15,2.19 z" /><path
         id="path66"
         style="fill:#ffffff;fill-opacity:1;fill-rule:evenodd;stroke:none"
         d="m 474.691,1325.9 -0.742,-215.39 -118.719,3.32 c -3.628,0.12 -5.429,1.99 -5.351,5.62 l 1.141,198.52 c 0,2.65 1.281,3.98 3.941,4.06 z" /><path
         id="path68"
         style="fill:#f5d991;fill-opacity:1;fill-rule:evenodd;stroke:none"
         d="m 317.77,1295.2 -3.282,-59.11 -50.937,1.88 c -2.61,0.08 -4.68,2.26 -4.68,4.88 v 44.34 c 0,3.9 1.867,6.44 5.617,7.61 18.602,5.86 36.332,5.98 53.282,0.4 z" /><path
         id="path70"
         style="fill:#1c3a45;fill-opacity:1;fill-rule:evenodd;stroke:none"
         d="m 1297.38,1250.2 c 153.28,-2.62 305,-3.64 455.08,-3.01 53.59,0.19 45.12,-67.97 -15.43,-67.97 -146.64,-0.24 -293.4,-0.27 -440.23,-0.08 z" /><path
         id="path72"
         style="fill:#f5d991;fill-opacity:1;fill-rule:evenodd;stroke:none"
         d="m 1098.87,1186.76 c 0,-1.41 -1.14,-2.54 -2.58,-2.54 l -53.83,0.39 c -1.41,0 -2.54,1.13 -2.54,2.54 l 0.39,53.08 c 0,1.41 1.14,2.54 2.54,2.54 l 53.87,-0.39 c 1.37,0 2.5,-1.13 2.5,-2.54 z" /><path
         id="path74"
         style="fill:#f5d991;fill-opacity:1;fill-rule:evenodd;stroke:none"
         d="m 315.43,1198.16 -1.41,-55.35 -61.481,0.08 2.731,48.87 c 0.082,2.62 2,4.88 4.531,5.62 17.429,4.73 35.98,4.96 55.629,0.78 z" /><path
         id="path76"
         style="fill:#f5d991;fill-opacity:1;fill-rule:evenodd;stroke:none"
         d="m 1050.2,1030.9 46.68,3.36 c 3,0.19 5.54,-2.35 5.27,-5.35 l -3.75,-48.09 c -0.2,-2.73 -2.66,-4.8 -5.39,-4.531 l -51.56,4.41 c -2.66,0.199 -4.73,2.461 -4.61,5.082 l 3.36,154.649 c 0,2.93 2.53,5.19 5.39,4.92 l 51.21,-4.61 c 2.54,-0.19 4.49,-2.38 4.49,-4.92 v -49.41 c 0,-2.82 -2.34,-5.08 -5.16,-4.96 l -46.13,1.6 c -2.81,0.07 -5.2,-2.19 -5.2,-5 v -42.19 c 0,-2.89 2.47,-5.16 5.4,-4.96 z" /><path
         id="path78"
         style="fill:#1e9c4a;fill-opacity:1;fill-rule:evenodd;stroke:none"
         d="m 252.539,1142.89 61.481,-0.08 c -1.399,-25.97 6.57,-47.19 23.91,-63.63 23.519,-22.3 89.34,-18.28 120.39,-19.02 4.77,-17.19 5.59,-32.31 2.418,-45.36 -22.578,9.3 -36.398,-23.55 -39.136,-42.261 -0.512,-3.711 -2.622,-5.43 -6.293,-5.199 l -40.508,2.93 c 0.711,8.402 4.539,13.128 11.488,14.218 16.949,2.543 25.902,7.153 35.781,20.712 3.008,4.14 1.95,6.36 -3.199,6.68 l -50.473,3.08 c -5.898,0.31 -9.257,-2.42 -10.16,-8.28 -1.789,-11.211 -0.617,-21.801 3.602,-31.719 -6.102,-6.133 -9.539,-12.621 -10.36,-19.371 -6.402,-52.86 -3.281,-98.36 9.418,-136.61 7.891,-13.039 9.493,-31.91 4.801,-56.64 l -0.66,-15.43 0.082,-59.801 -36.723,10.082 c -3.199,0.86 -6.679,0 -9.019,-2.351 l -2.348,-2.34 c -3.011,-3.09 -3.98,-2.539 -2.929,1.602 13.949,55.429 3.398,139.418 2.808,198.128 l 1.328,13.668 c 4.961,21.051 4.223,38.122 -2.258,51.172 l 0.93,53.09 c 0.078,3.71 -1.711,5.43 -5.351,5.19 l -55.821,-3.87 c -9.957,10.47 -10.617,23.79 -1.949,39.93 l 55.621,-1.14 c 4.5,-0.07 6.68,2.19 6.488,6.76 l -1.988,41.8 c -0.238,4.53 -2.621,6.68 -7.148,6.52 l -51.102,-1.8 c -7.93,13.68 -8.941,26.8 -3.121,39.34 z" /><path
         id="path80"
         style="fill:#f5d991;fill-opacity:1;fill-rule:evenodd;stroke:none"
         d="m 253.789,1051.41 1.871,52.14 51.102,1.8 c 4.527,0.16 6.91,-1.99 7.148,-6.52 l 1.988,-41.8 c 0.192,-4.57 -1.988,-6.83 -6.488,-6.76 z" /><path
         id="path82"
         style="fill:#f5d991;fill-opacity:1;fill-rule:evenodd;stroke:none"
         d="m 315.98,957.07 c -18.519,-6.019 -36.371,-6.761 -53.558,-2.23 -3.512,0.859 -5.313,3.129 -5.473,6.762 l -1.211,49.878 55.821,3.87 c 3.64,0.24 5.429,-1.48 5.351,-5.19 z" /><path
         id="path84"
         style="fill:#f5d991;fill-opacity:1;fill-rule:evenodd;stroke:none"
         d="m 374.801,970.27 c -3.629,-2.969 -6.711,-3.711 -9.289,-2.258 -2.192,1.25 -3.442,3.59 -3.672,6.949 -4.219,9.918 -5.391,20.508 -3.602,31.719 0.903,5.86 4.262,8.59 10.16,8.28 l 50.473,-3.08 c 5.149,-0.32 6.207,-2.54 3.199,-6.68 -9.879,-13.559 -18.832,-18.169 -35.781,-20.712 -6.949,-1.09 -10.777,-5.816 -11.488,-14.218 z" /><path
         id="path86"
         style="fill:#f5d991;fill-opacity:1;fill-rule:evenodd;stroke:none"
         d="m 1037.11,929.02 c 0,1.14 0.94,2.07 2.07,2.07 l 1.21,-0.07 c 35.31,-0.469 63.83,-3.399 63.83,-6.489 l -0.74,-54.019 c -0.12,-3.133 -28.71,-5.282 -64.03,-4.731 h -1.21 c -1.13,0 -2.07,0.938 -2.07,2.071 z" /><path
         id="path88"
         style="fill:#f5d991;fill-opacity:1;fill-rule:evenodd;stroke:none"
         d="m 318.238,905.898 -1.328,-13.668 -2.609,-21.101 c -0.391,-3.359 -2.313,-5.078 -5.75,-5.078 h -47.34 c -3.121,0 -4.731,1.57 -4.731,4.73 v 42.27 c 0,3 1.571,4.57 4.61,4.679 13.48,0.391 53.129,5.469 57.148,-11.832 z" /><path
         id="path90"
         style="fill:#1c3a45;fill-opacity:1;fill-rule:evenodd;stroke:none"
         d="m 1296.99,863.98 c 149.42,-0.23 297.31,-1.32 443.71,-3.281 58.17,-0.738 60.43,-65.039 11.21,-65.039 -150.11,-0.191 -301.68,-1.68 -454.72,-4.41 z" /><path
         id="path92"
         style="fill:#f5d991;fill-opacity:1;fill-rule:evenodd;stroke:none"
         d="m 867.578,834.141 0.473,-57.891 -46.211,-6.289 c -3.75,-0.473 -7.149,2.461 -7.27,6.289 l -0.55,44.73 c -0.071,4.059 1.839,6.75 5.75,8 16.679,5.469 32.609,7.192 47.808,5.161 z" /><path
         id="path94"
         style="fill:#f5d991;fill-opacity:1;fill-rule:evenodd;stroke:none"
         d="m 641.129,778.629 c -0.109,-4.059 -3.508,-7.258 -7.539,-7.149 l -38.391,0.942 c -4.07,0.078 -7.269,3.476 -7.148,7.5 l 1.09,44.058 c 0.121,4.071 3.48,7.27 7.5,7.149 l 38.398,-0.93 c 4.102,-0.078 7.301,-3.48 7.152,-7.539 z" /><path
         id="path96"
         style="fill:#232b4f;fill-opacity:1;fill-rule:evenodd;stroke:none"
         d="m 981.68,828.238 c -16.328,-5.148 -32.77,-5.699 -49.34,-1.597 19.769,5.269 36.211,5.781 49.34,1.597 z" /><path
         id="path98"
         style="fill:#f5d991;fill-opacity:1;fill-rule:evenodd;stroke:none"
         d="m 1100.39,778.551 c -0.04,-1.91 -1.64,-3.512 -3.63,-3.512 l -53.83,0.742 c -1.95,0 -3.55,1.719 -3.52,3.629 l 0.67,46.879 c 0.04,1.949 1.64,3.551 3.63,3.512 l 53.83,-0.742 c 1.95,0 3.55,-1.68 3.51,-3.629 z" /><path
         id="path100"
         style="fill:#f5d991;fill-opacity:1;fill-rule:evenodd;stroke:none"
         d="m 306.879,827.852 c 2.531,-0.082 4.492,-2.192 4.492,-4.731 l -0.551,-22.769 c -0.39,-14.84 -5.199,-26.723 -10.742,-26.641 l -36.719,0.937 c -5.55,0.122 -9.769,12.262 -9.41,27.032 l 0.582,22.769 c 0.078,2.539 2.149,4.61 4.688,4.531 z" /><path
         id="path102"
         style="fill:#f5d991;fill-opacity:1;fill-rule:evenodd;stroke:none"
         d="m 534.34,775.352 c 0.039,-1.723 -1.488,-3.243 -3.211,-3.161 l -51.008,0.43 c -1.762,0.078 -3.172,1.481 -3.211,3.238 l 0.43,47.422 c -0.039,1.758 1.488,3.239 3.25,3.199 l 51.012,-0.46 c 1.718,-0.04 3.128,-1.45 3.168,-3.211 z" /><path
         id="path104"
         style="fill:#f5d991;fill-opacity:1;fill-rule:evenodd;stroke:none"
         d="m 365.699,762.34 c 4.692,24.73 3.09,43.601 -4.801,56.64 l 54.493,6.532 c 3.558,0.468 6.679,-2.543 6.41,-6.133 l -3.403,-42.149 c -0.277,-3.871 -3.199,-7.07 -7.07,-7.66 z" /><path
         id="path106"
         style="fill:#f5d991;fill-opacity:1;fill-rule:evenodd;stroke:none"
         d="m 760.309,776.09 c 0.043,-1.32 -1.09,-2.461 -2.418,-2.5 l -49.102,-0.5 c -1.328,-0.039 -2.461,1.09 -2.5,2.422 l -0.469,46.476 c -0.039,1.332 1.09,2.461 2.418,2.5 L 757.379,825 c 1.293,0.039 2.422,-1.09 2.461,-2.418 z" /><path
         id="path108"
         style="fill:#f5d991;fill-opacity:1;fill-rule:evenodd;stroke:none"
         d="m 932.34,826.641 c 16.57,-4.102 33.012,-3.551 49.34,1.597 2.808,-12.109 3.011,-22.187 0.55,-30.148 l -1.41,-15.32 c -0.39,-3.629 -2.379,-5.469 -6.019,-5.469 l -44.922,-0.27 z" /><path
         id="path110"
         style="fill:#232b4f;fill-opacity:1;fill-rule:evenodd;stroke:none"
         d="m 982.23,798.09 1.399,-51.488 c -19.18,-3.981 -37.379,-4.141 -54.57,-0.352 -3.508,9.84 -3.239,20.121 0.82,30.781 l 44.922,0.27 c 3.64,0 5.629,1.84 6.019,5.469 z" /><path
         id="path112"
         style="fill:#f5d991;fill-opacity:1;fill-rule:evenodd;stroke:none"
         d="m 641.68,694.219 c 0,-3.789 -3.129,-6.797 -6.95,-6.797 l -38.21,0.547 c -3.79,0 -6.79,3.203 -6.79,6.953 l 0.7,50.469 c 0.039,3.75 3.121,6.8 6.992,6.757 l 38.199,-0.546 c 3.789,0 6.801,-3.204 6.758,-6.954 z" /><path
         id="path114"
         style="fill:#f5d991;fill-opacity:1;fill-rule:evenodd;stroke:none"
         d="m 752.93,750.59 c 2.34,0.07 4.41,-1.918 4.41,-4.34 l 0.672,-44.059 c 0.109,-6.41 -3.953,-11.679 -8.953,-11.679 l -35,-0.551 c -5,0 -9.02,5.078 -9.137,11.488 l -0.66,44.02 c 0,2.461 1.988,4.453 4.41,4.531 z" /><path
         id="path116"
         style="fill:#f5d991;fill-opacity:1;fill-rule:evenodd;stroke:none"
         d="m 868.441,751.879 0.938,-60.899 c -17.5,-4.769 -34.809,-5.75 -51.879,-2.89 -2.93,0.461 -4.379,2.219 -4.34,5.23 l 1.531,51.129 c 0.079,3.012 2.418,5.352 5.469,5.551 z" /><path
         id="path118"
         style="fill:#f5d991;fill-opacity:1;fill-rule:evenodd;stroke:none"
         d="m 365.121,687.109 -0.082,59.801 49.492,1.02 c 2.891,0.082 4.34,-1.328 4.34,-4.141 V 694.57 c 0,-2.66 -2.07,-4.8 -4.691,-4.879 z" /><path
         id="path120"
         style="fill:#f5d991;fill-opacity:1;fill-rule:evenodd;stroke:none"
         d="m 491.25,688.09 c -6.09,0.07 -11.02,5.148 -10.898,11.289 l 0.738,39.723 c 0.082,5.16 4.691,9.097 10.281,9.019 l 33.32,-0.582 c 5.539,-0.16 9.957,-4.301 9.879,-9.418 l -0.781,-39.68 C 533.711,692.23 528.629,687.422 522.5,687.5 Z" /><path
         id="path122"
         style="fill:#f5d991;fill-opacity:1;fill-rule:evenodd;stroke:none"
         d="m 929.059,746.25 c 17.191,-3.789 35.39,-3.629 54.57,0.352 l 4.531,-52.301 c 0.36,-3.789 -2.648,-7.071 -6.48,-7.071 h -49.61 c -3.199,0 -4.769,1.641 -4.73,4.879 z" /><path
         id="path124"
         style="fill:#f5d991;fill-opacity:1;fill-rule:evenodd;stroke:none"
         d="m 307.34,698.238 c -0.309,-5.539 -5.11,-9.879 -10.66,-9.609 l -18.828,0.941 c -11.09,0.469 -19.571,12.34 -18.903,26.371 l 0.192,3.75 c 0.738,14.02 10.269,24.957 21.371,24.368 l 18.828,-0.938 c 5.621,-0.269 9.879,-5 9.68,-10.621 z" /><path
         id="path126"
         style="fill:#f5d991;fill-opacity:1;fill-rule:evenodd;stroke:none"
         d="m 1098.12,686.719 c -0.03,-1.367 -1.17,-2.418 -2.5,-2.418 l -53.82,1.32 c -1.41,0 -2.42,1.141 -2.39,2.5 l 1.25,51.219 c 0,1.359 1.14,2.379 2.5,2.379 l 53.83,-1.328 c 1.41,0 2.42,-1.129 2.39,-2.5 z" /><path
         id="path128"
         style="fill:#ffffff;fill-opacity:1;fill-rule:evenodd;stroke:none"
         d="m 145.512,498.672 c -39.141,-1.602 -72.2737,32.656 -74.0315,76.598 -1.711,43.91 28.5975,80.781 67.6605,82.351 39.14,1.559 72.269,-32.699 73.98,-76.641 1.758,-43.91 -28.551,-80.781 -67.609,-82.308 z" /><path
         id="path130"
         style="fill:#30ba67;fill-opacity:1;fill-rule:nonzero;stroke:none"
         d="m 681.02,225.941 c 22.808,0 38.98,-5 48.589,-15 7.192,-7.621 10.782,-17.191 10.782,-28.75 0,-3.992 -0.391,-8.211 -1.09,-12.66 L 736.48,155.16 c -2.179,-11.371 -6.48,-20.281 -12.808,-26.719 -6.25,-6.371 -11.793,-9.531 -16.563,-9.531 l -0.308,-2.351 c 5.621,0 11.289,-3.118 17.027,-9.368 5.82,-6.171 8.75,-13.441 8.75,-21.8824 0,-3.4297 -0.387,-7.0273 -1.098,-10.7773 l -1.871,-9.3711 C 726.371,47.9688 718.711,34.4492 706.641,24.6914 694.531,14.8789 677.73,10 656.172,10 H 555.859 L 593.98,225.941 Z M 653.98,98.1211 h -28.429 l -7.192,-41.2422 h 28.442 c 0.39,0 0.82,0 1.25,0 9.14,0 16.437,2.1016 21.871,6.4024 5.387,4.2578 8.129,9.5273 8.129,15.7773 0,12.7031 -8.051,19.0625 -24.071,19.0625 z m 8.129,81.0979 h -22.5 l -7.808,-44.688 h 22.179 c 19.258,0 28.911,8.36 28.911,25.16 0,5.821 -1.801,10.508 -5.313,14.059 -3.558,3.629 -8.707,5.469 -15.469,5.469 z M 844.922,225.941 807.109,10 H 752.73 l 38.129,215.941 z" /><path
         id="path132"
         style="fill:#30ba67;fill-opacity:1;fill-rule:nonzero;stroke:none"
         d="M 1063.32,179.219 H 989.57 L 959.879,10 H 905.66 l 29.692,169.219 h -74.223 l 8.441,46.722 h 202.19 z" /><path
         id="path134"
         style="fill:#30ba67;fill-opacity:1;fill-rule:nonzero;stroke:none"
         d="m 1115.35,71.5586 c 0,-13.8594 9.92,-20.7773 29.85,-20.7773 19.88,0 29.84,6.1679 29.84,18.5976 0,6.6406 -3.4,12.0703 -10.16,16.2422 -6.79,4.1484 -15.08,7.6602 -24.84,10.4687 -9.69,2.8204 -19.38,6.0192 -29.06,9.6912 -9.69,3.75 -17.93,9.571 -24.69,17.5 -6.8,7.891 -10.16,17.739 -10.16,29.528 0,50.203 32.27,75.312 96.88,75.312 23.51,0 41.33,-4.492 53.44,-13.43 12.18,-8.871 18.28,-21.211 18.28,-37.031 0,-5.75 -0.78,-11.25 -2.35,-16.57 -1.48,-5.309 -2.97,-9.059 -4.53,-11.25 l -2.5,-3.59 h -53.12 c 4.45,4.57 6.72,10.352 6.72,17.34 0,13.012 -8.56,19.531 -25.63,19.531 -21.37,0 -32.03,-6.832 -32.03,-20.461 0,-6.801 3.36,-12.191 10.16,-16.25 6.87,-3.988 15.15,-7.109 24.84,-9.379 9.69,-2.301 19.41,-5.152 29.22,-8.59 9.76,-3.363 18.04,-8.992 24.84,-16.882 6.76,-7.93 10.16,-18.1996 10.16,-30.7777 0,-25.4297 -7.62,-44.3008 -22.81,-56.5625 -15.12,-12.3086 -38.52,-18.43755 -70.16,-18.43755 -31.56,0 -53.13,5.62895 -64.69,16.87895 -8.67,8.3203 -12.97,19.8789 -12.97,34.6796 0,5.629 0.63,11.7188 1.88,18.2813 l 0.78,4.8477 h 54.06 l -0.62,-3.5899 c -0.43,-2 -0.63,-3.7578 -0.63,-5.3203 z" /></g></g></svg>